<?xml version="1.0" encoding="UTF-8" standalone="no"?>
<svg
   xmlns:dc="http://purl.org/dc/elements/1.1/"
   xmlns:cc="http://creativecommons.org/ns#"
   xmlns:rdf="http://www.w3.org/1999/02/22-rdf-syntax-ns#"
   xmlns:svg="http://www.w3.org/2000/svg"
   xmlns="http://www.w3.org/2000/svg"
   width="185.55957mm"
   height="78.939812mm"
   viewBox="0 0 657.49454 279.70799"
   id="svg2"
   version="1.1">
  <defs
     id="defs4">
    <clipPath
       id="clipPath3407"
       clipPathUnits="userSpaceOnUse">
      <path
         id="path3409"
         d="m 0,746.502 1671.23,0 L 1671.23,0 0,0 0,746.502 Z" />
    </clipPath>
    <clipPath
       clipPathUnits="userSpaceOnUse"
       id="clipPath3375">
      <path
         d="m 0,747.586 1416.137,0 L 1416.137,0 0,0 0,747.586 Z"
         id="path3377" />
    </clipPath>
  </defs>
  <metadata
     id="metadata7">
    <rdf:RDF>
      <cc:Work
         rdf:about="">
        <dc:format>image/svg+xml</dc:format>
        <dc:type
           rdf:resource="http://purl.org/dc/dcmitype/StillImage" />
        <dc:title></dc:title>
      </cc:Work>
    </rdf:RDF>
  </metadata>
  <g
     id="g3369"
     transform="matrix(0.56203734,0,0,-0.56203734,-69.927337,349.63477)">
    <g
       id="g3371">
      <g
         id="g3373"
         clip-path="url(#clipPath3375)">
        <g
           id="g3379"
           transform="translate(267.6106,541.2706)">
          <path
             d="m 0,0 c 33.68,33.66 77.134,48.408 123.267,48.408 l 34.123,0 0,32.406 -34.299,0 C 68.3,80.814 16.825,62.707 -22.929,22.953 -62.928,-17.046 -80.792,-68.194 -80.792,-124.033 L -80.8,-207.8 c 0,-3.059 -0.238,-6.953 -0.725,-9.587 -1.159,-6.255 -3.735,-11.356 -7.923,-15.534 -3.75,-3.74 -8.331,-5.896 -11.786,-7.146 -2.987,-1.081 -6.808,-1.901 -10.901,-2.512 -9.058,-1.354 -31.058,-1.847 -31.058,-1.847 l 0,-100.514 29.802,0 c 37.96,0 72.84,11.549 98.927,37.592 26.088,26.048 37.539,59.397 37.539,95.341 l 0.008,87.975 c 0,27.102 8.602,52.54 28.507,72.386 20.013,19.951 45.423,28.586 72.071,28.586 l 4.658,0 -10e-4,-38.635 c -9.11,-0.609 -15.476,-1.47 -23.762,-4.09 -8.744,-2.765 -17.048,-7.347 -24.304,-14.552 -12.177,-12.095 -17.217,-27.645 -17.217,-43.695 l -0.008,-87.975 c 0,-46.996 -15.014,-90.233 -48.831,-124.032 -33.679,-33.66 -77.133,-48.408 -123.266,-48.408 l -34.123,0 0,-32.407 34.298,0 c 54.791,0 106.267,18.108 146.02,57.862 39.999,39.999 57.863,91.147 57.863,146.985 l 0.009,83.768 c 0,3.059 0.237,6.953 0.725,9.587 1.159,6.254 3.735,11.356 7.923,15.533 3.75,3.741 8.331,5.897 11.785,7.147 2.987,1.081 6.809,1.901 10.902,2.512 9.057,1.353 31.058,1.847 31.058,1.847 l 0,100.515 -29.803,0 c -37.96,0 -72.839,-11.55 -98.926,-37.594 -26.088,-26.047 -37.539,-59.396 -37.539,-95.34 l -0.009,-87.975 c 0,-27.102 -8.601,-52.541 -28.506,-72.387 -20.013,-19.95 -45.423,-28.586 -72.072,-28.586 l -4.658,0 0.001,39.444 c 9.111,0.609 16.049,1.759 23.763,4.09 8.778,2.654 17.048,6.539 24.304,13.744 12.177,12.095 17.216,27.645 17.216,43.695 l 0.008,87.974 C -48.831,-77.036 -33.816,-33.798 0,0"
             style="fill:#33b65b;fill-opacity:1;fill-rule:nonzero;stroke:none"
             id="path3381" />
        </g>
        <g
           id="g3383"
           transform="translate(636.9417,298.6954)">
          <path
             d="m 0,0 0,19.053 c 0,6.627 -1.728,11.733 -5.177,15.325 -3.456,3.586 -8.077,5.385 -13.876,5.385 l -34.792,0 0,-60.473 36.035,0 C -5.941,-20.71 0,-13.811 0,0 m -11.597,92.78 c 3.313,3.035 4.97,7.727 4.97,14.083 l 0,43.49 c 0,6.899 -1.521,11.869 -4.556,14.911 -3.042,3.035 -6.905,4.556 -11.597,4.556 l -31.065,0 0,-81.596 29.408,0 c 5.242,0 9.526,1.514 12.84,4.556 m -1.243,126.744 c 19.882,0 35.342,-5.042 46.39,-15.118 11.041,-10.083 16.568,-25.201 16.568,-45.355 l 0,-48.047 c 0,-10.497 -1.935,-19.402 -5.799,-26.715 -3.87,-7.32 -9.669,-12.775 -17.396,-16.361 l 0,-0.414 C 36.585,64.2 44.041,58.401 49.29,50.117 54.531,41.834 57.159,31.893 57.159,20.296 l 0,-26.923 c 0,-20.438 -5.734,-36.178 -17.189,-47.219 -11.462,-11.047 -28.1,-16.567 -49.91,-16.567 l -101.478,0 0,289.937 98.578,0 z"
             style="fill:#33b65b;fill-opacity:1;fill-rule:nonzero;stroke:none"
             id="path3385" />
        </g>
        <g
           id="g3387"
           transform="translate(803.0305,458.5748)">
          <path
             d="m 0,0 -0.829,0 -21.123,-119.703 42.661,0 L 0,0 Z m 40.177,59.645 58.815,-289.937 -58.815,0 -10.356,58.815 -60.471,0 -10.356,-58.815 -57.987,0 59.644,289.937 79.526,0 z"
             style="fill:#33b65b;fill-opacity:1;fill-rule:nonzero;stroke:none"
             id="path3389" />
        </g>
        <g
           id="g3391"
           transform="translate(978.2307,518.2194)">
          <path
             d="m 0,0 55.916,-170.649 0.414,0 L 55.916,0 l 55.502,0 0,-289.937 -55.502,0 -59.645,176.448 -0.414,0 0.414,-176.448 -55.501,0 L -59.23,0 0,0 Z"
             style="fill:#33b65b;fill-opacity:1;fill-rule:nonzero;stroke:none"
             id="path3393" />
        </g>
        <g
           id="g3395"
           transform="translate(1175.385,518.2194)">
          <path
             d="M 0,0 0,-168.578 4.142,-156.152 57.159,0 l 59.23,0 -51.775,-149.111 54.26,-140.826 -59.23,0 -36.45,96.093 L 0,-247.689 l 0,-42.248 -56.745,0 L -56.745,0 0,0 Z"
             style="fill:#33b65b;fill-opacity:1;fill-rule:nonzero;stroke:none"
             id="path3397" />
        </g>
      </g>
    </g>
  </g>
</svg>
